<svg width="16" height="16" viewBox="0 0 16 16" fill="none" xmlns="http://www.w3.org/2000/svg">
<path d="M8 0C3.59032 0 0 3.5892 0 7.99752C0 12.4058 3.58535 16 8 16C12.4146 16 16 12.4108 16 8.00248C16 3.59417 12.4097 0 8 0ZM12.4693 5.89761L7.3594 10.9662C7.05649 11.269 6.57976 11.2889 6.25698 10.986L3.55059 8.51877C3.22781 8.21595 3.20795 7.71455 3.491 7.39684C3.79392 7.07415 4.29547 7.0543 4.61328 7.35712L6.75854 9.32299L11.3321 4.75085C11.6549 4.42817 12.1564 4.42817 12.4742 4.75085C12.7921 5.07353 12.7921 5.57493 12.4693 5.89761Z" fill="#3099F2"/>
</svg>
