<svg width="18" height="17" viewBox="0 0 18 17" fill="none" xmlns="http://www.w3.org/2000/svg">
<path d="M8.82188 15.666L5.88867 12.7328H3.9332C3.15527 12.7328 2.4092 12.4238 1.85912 11.8737C1.30903 11.3236 1 10.5775 1 9.79961V3.9332C1 3.15527 1.30903 2.4092 1.85912 1.85912C2.4092 1.30903 3.15527 1 3.9332 1H13.7105C14.4885 1 15.2346 1.30903 15.7846 1.85912C16.3347 2.4092 16.6438 3.15527 16.6438 3.9332V9.79961C16.6438 10.5775 16.3347 11.3236 15.7846 11.8737C15.2346 12.4238 14.4885 12.7328 13.7105 12.7328H11.7551L8.82188 15.666Z" stroke="#7891A6" stroke-width="1.5" stroke-linecap="round" stroke-linejoin="round"/>
<path d="M4.91089 4.91016H12.7328" stroke="#7891A6" stroke-width="1.5" stroke-linecap="round" stroke-linejoin="round"/>
<path d="M4.91089 8.82227H10.7773" stroke="#7891A6" stroke-width="1.5" stroke-linecap="round" stroke-linejoin="round"/>
</svg>
