<svg width="46" height="46" viewBox="0 0 46 46" fill="none" xmlns="http://www.w3.org/2000/svg">
<path d="M44.3294 37.4666H41.8494V6.6001C41.8494 3.56355 39.3791 1.09326 36.3426 1.09326H9.38022C6.77188 1.09326 4.64941 3.21573 4.64941 5.82407V8.53326C4.64941 8.98979 5.01955 9.35993 5.47608 9.35993H12.0894V38.5448C12.0894 42.2313 14.5229 44.9066 17.8761 44.9066H40.3798C43.0136 44.9066 45.1561 42.7641 45.1561 40.1303V38.2933C45.1561 37.8367 44.7859 37.4666 44.3294 37.4666ZM6.30275 7.7066V5.82407C6.30275 4.15296 7.64381 2.79537 9.35997 2.75424C11.0185 2.83236 12.0894 4.12052 12.0894 6.05326V7.7066H6.30275ZM21.1827 39.5333C21.1827 41.5094 19.6387 43.141 17.6673 43.2477C17.6649 43.2477 17.6622 43.2481 17.6593 43.2481C15.3423 43.1367 13.7427 41.2339 13.7427 38.5448V6.05326C13.7427 4.7368 13.3414 3.60385 12.6668 2.7466H36.3426C38.4673 2.7466 40.1961 4.47536 40.1961 6.6001V37.4666H22.0094C21.5529 37.4666 21.1827 37.8367 21.1827 38.2933V39.5333ZM43.5028 40.1303C43.5028 41.8523 42.1018 43.2533 40.3798 43.2533H21.3411C22.2686 42.2857 22.8361 40.9727 22.8361 39.5333V39.1199H43.5028V40.1303Z" fill="#7891A6" stroke="#7891A6"/>
<path d="M4.74883 29.9267C4.42602 29.6039 3.90274 29.6039 3.57992 29.9267L2.99547 30.5111L2.41102 29.9267C2.0882 29.6039 1.56492 29.6039 1.24211 29.9267C0.919297 30.2495 0.919297 30.7728 1.24211 31.0956L1.82656 31.68L1.24211 32.2645C0.919297 32.5873 0.919297 33.1106 1.24211 33.4334C1.40352 33.5948 1.61514 33.6756 1.82656 33.6756C2.03798 33.6756 2.24961 33.5948 2.41102 33.4334L2.99547 32.849L3.57992 33.4334C3.74133 33.5948 3.95296 33.6756 4.16438 33.6756C4.3758 33.6756 4.58742 33.5948 4.74883 33.4334C5.07164 33.1106 5.07164 32.5873 4.74883 32.2645L4.16438 31.68L4.74883 31.0956C5.07185 30.7726 5.07185 30.2495 4.74883 29.9267Z" fill="#7891A6" stroke="#7891A6"/>
<path d="M8.78272 30.0266C9.23928 30.0266 9.60939 29.6565 9.60939 29.2C9.60939 28.7434 9.23928 28.3733 8.78272 28.3733C8.32617 28.3733 7.95605 28.7434 7.95605 29.2C7.95605 29.6565 8.32617 30.0266 8.78272 30.0266Z" fill="#7891A6" stroke="#7891A6"/>
<path d="M6.30225 20.9331C6.75881 20.9331 7.12892 20.563 7.12892 20.1065C7.12892 19.6499 6.75881 19.2798 6.30225 19.2798C5.8457 19.2798 5.47559 19.6499 5.47559 20.1065C5.47559 20.563 5.8457 20.9331 6.30225 20.9331Z" fill="#7891A6" stroke="#7891A6"/>
</svg>
