<svg width="17" height="19" viewBox="0 0 17 19" fill="none" xmlns="http://www.w3.org/2000/svg">
<path d="M8.1649 10.8513C9.64882 10.8513 10.8518 9.64833 10.8518 8.16441C10.8518 6.68049 9.64882 5.47754 8.1649 5.47754C6.68098 5.47754 5.47803 6.68049 5.47803 8.16441C5.47803 9.64833 6.68098 10.8513 8.1649 10.8513Z" stroke="#3099F2" stroke-width="1.5" stroke-linecap="round" stroke-linejoin="round"/>
<path d="M13.2315 13.2313L9.43141 17.0314C9.09554 17.367 8.6402 17.5554 8.16545 17.5554C7.69069 17.5554 7.23535 17.367 6.89948 17.0314L3.09845 13.2313C2.09645 12.2292 1.41408 10.9525 1.13765 9.56268C0.861217 8.17282 1.00313 6.7322 1.54544 5.42299C2.08775 4.11378 3.00611 2.99478 4.18438 2.20749C5.36265 1.42021 6.74791 1 8.165 1C9.58209 1 10.9674 1.42021 12.1456 2.20749C13.3239 2.99478 14.2422 4.11378 14.7846 5.42299C15.3269 6.7322 15.4688 8.17282 15.1923 9.56268C14.9159 10.9525 14.2336 12.2292 13.2315 13.2313V13.2313Z" stroke="#3099F2" stroke-width="1.5" stroke-linecap="round" stroke-linejoin="round"/>
</svg>
