<svg width="22" height="22" viewBox="0 0 22 22" fill="none" xmlns="http://www.w3.org/2000/svg">
<path d="M3.26562 17.7031H3.7443C4.69704 15.9129 5.19922 13.9063 5.19922 11.8756V8.89453C5.19922 6.45464 6.71352 4.36193 8.85156 3.50638V2.14844C8.85156 0.963789 9.81535 0 11 0C12.1846 0 13.1484 0.963789 13.1484 2.14844V3.50638C15.2865 4.36193 16.8008 6.45459 16.8008 8.89453V11.8756C16.8008 13.9062 17.303 15.9129 18.2557 17.7031H18.7344C19.0903 17.7031 19.3789 17.9917 19.3789 18.3477C19.3789 18.7036 19.0903 18.9922 18.7344 18.9922H14.5942C14.2888 20.6996 12.7939 22 11 22C9.20605 22 7.71121 20.6996 7.40575 18.9922H3.26562C2.90967 18.9922 2.62109 18.7036 2.62109 18.3477C2.62109 17.9917 2.90967 17.7031 3.26562 17.7031ZM11.8594 2.14844C11.8594 1.67458 11.4739 1.28906 11 1.28906C10.5261 1.28906 10.1406 1.67458 10.1406 2.14844V3.15752C10.4211 3.11566 10.708 3.09375 11 3.09375C11.292 3.09375 11.5789 3.11566 11.8594 3.15752V2.14844ZM15.5117 8.89453C15.5117 6.40677 13.4878 4.38281 11 4.38281C8.51224 4.38281 6.48828 6.40677 6.48828 8.89453V11.8756C6.48828 12.8257 6.38868 13.7709 6.19394 14.6953H15.8061C15.6113 13.771 15.5117 12.8257 15.5117 11.8756V8.89453ZM16.1438 15.9844H5.85617C5.6717 16.5709 5.44796 17.1453 5.18573 17.7031H16.8143C16.552 17.1453 16.3283 16.5709 16.1438 15.9844ZM11 20.7109C12.0797 20.7109 12.9919 19.9829 13.2732 18.9922H8.72682C9.00814 19.9829 9.92032 20.7109 11 20.7109Z" fill="#7891A6"/>
<path d="M1.31964 7.80975C1.57131 7.55804 1.97943 7.55804 2.23114 7.80975C2.48285 8.06147 2.48285 8.46954 2.23114 8.72125C1.6236 9.32879 1.289 10.1381 1.289 11C1.289 11.862 1.6236 12.6712 2.23114 13.2788C2.48285 13.5305 2.48285 13.9386 2.23114 14.1903C2.10528 14.3161 1.94037 14.3791 1.77541 14.3791C1.6105 14.3791 1.4455 14.3161 1.31968 14.1903C0.468598 13.3393 -6.29425e-05 12.2063 -6.29425e-05 11C-6.29425e-05 9.79375 0.468599 8.66075 1.31964 7.80975Z" fill="#7891A6"/>
<path d="M4.05536 9.63272C4.30707 9.88443 4.30707 10.2925 4.05536 10.5442C3.93363 10.666 3.86656 10.8278 3.86656 11C3.86656 11.1722 3.93363 11.334 4.05536 11.4558C4.30707 11.7075 4.30707 12.1156 4.05536 12.3673C3.9295 12.4931 3.76455 12.5561 3.59963 12.5561C3.43472 12.5561 3.26972 12.4932 3.14391 12.3673C2.38998 11.6134 2.38998 10.3867 3.14391 9.63272C3.39553 9.38101 3.80365 9.38101 4.05536 9.63272Z" fill="#7891A6"/>
<path d="M19.7688 7.80974C20.0205 7.55807 20.4285 7.55803 20.6803 7.80974C21.5313 8.66073 22 9.79373 22 11C22 12.2063 21.5313 13.3393 20.6803 14.1903C20.5544 14.3161 20.3895 14.3791 20.2246 14.3791C20.0597 14.3791 19.8947 14.3162 19.7688 14.1903C19.5171 13.9385 19.5171 13.5305 19.7688 13.2788C20.3763 12.6712 20.7109 11.8619 20.7109 11C20.7109 10.138 20.3763 9.32877 19.7688 8.72123C19.5171 8.46952 19.5171 8.06145 19.7688 7.80974Z" fill="#7891A6"/>
<path d="M18.4026 12.556C18.2377 12.556 18.0727 12.4931 17.9469 12.3672C17.6952 12.1155 17.6952 11.7074 17.9469 11.4557C18.0686 11.334 18.1357 11.1721 18.1357 11C18.1357 10.8278 18.0686 10.666 17.9469 10.5442C17.6952 10.2925 17.6952 9.8844 17.9469 9.63269C18.1986 9.38098 18.6067 9.38098 18.8584 9.63269C19.6123 10.3866 19.6123 11.6133 18.8584 12.3672C18.7325 12.4931 18.5676 12.556 18.4026 12.556Z" fill="#7891A6"/>
</svg>
