<svg width="18" height="18" viewBox="0 0 18 18" fill="none" xmlns="http://www.w3.org/2000/svg">
<path d="M8.04608 1.10098C4.07727 1.10098 0.85 4.34932 0.85 8.34019C0.85 12.3313 4.07728 15.5794 8.04608 15.5794C12.0151 15.5794 15.2422 12.3313 15.2422 8.34019C15.2422 4.34933 12.0151 1.10098 8.04608 1.10098ZM8.04608 13.9707C4.96187 13.9707 2.45082 11.4455 2.45082 8.34022C2.45082 5.23489 4.96187 2.70975 8.04608 2.70975C11.1303 2.70975 13.6413 5.23486 13.6413 8.34019C13.6413 11.4455 11.1303 13.9707 8.04608 13.9707Z" fill="white" stroke="white" stroke-width="0.3"/>
<path d="M13.1869 12.3743L16.9158 16.1261C17.2281 16.4401 17.2281 16.9491 16.9158 17.263C16.7596 17.4201 16.5543 17.499 16.3496 17.499C16.1446 17.499 15.9395 17.4201 15.7834 17.263L12.0544 13.5112C12.0544 13.5112 12.0544 13.5111 12.0544 13.5111C11.7422 13.1972 11.7422 12.6883 12.0544 12.3743L13.1869 12.3743ZM13.1869 12.3743C12.8741 12.0597 12.3672 12.0597 12.0544 12.3743L13.1869 12.3743Z" fill="white" stroke="white" stroke-width="0.3"/>
</svg>
