<svg id="Layer_1" data-name="Layer 1" xmlns="http://www.w3.org/2000/svg" viewBox="0 0 463.51 463.22"><defs><style>.cls-1{fill:#3098f1;}</style></defs><path class="cls-1" d="M455.76,420.62Q408.9,373.68,362,326.81c-1.4-1.4-2.79-2.29-.92-4.76a200.26,200.26,0,0,0,34.8-170.36c-10.42-40.54-31.37-74.76-63-102.23C296.28,17.76,253.64,1.32,205.36.07c-35.25-.91-68.81,6.76-99.52,24.19C37.5,63.05,3.26,122.62,0,200.53c.18,8.17.82,16.12,1.71,24.07a192.92,192.92,0,0,0,20,66.59c19.12,37.4,47.1,66.4,84.07,86.39,40,21.62,82.66,28.62,127.49,21.56a195,195,0,0,0,88.5-37.92c2.16-1.63,3.32-1.55,5.22.38,11,11.23,22.2,22.31,33.33,33.44q30.21,30.21,60.42,60.41c6.27,6.28,13.79,9,22.51,7.26,9.75-1.93,16.33-7.8,19.14-17.4S462.67,427.54,455.76,420.62Zm-255.1-67.06C116,353,47.79,284.29,48.53,199.5c.75-86.21,72.31-152.44,155.29-151.26C286.17,49.41,354,118.08,353.64,201.51,353.28,285.6,284.37,354.09,200.66,353.56Z"/></svg>