<svg width="14" height="14" viewBox="0 0 14 14" fill="none" xmlns="http://www.w3.org/2000/svg">
<g clip-path="url(#clip0)">
<path d="M10.5735 8.32324C9.60047 8.32324 8.80884 9.11487 8.80884 10.088C8.80884 11.061 9.60047 11.8527 10.5735 11.8527C11.5468 11.8527 12.3383 11.061 12.3383 10.088C12.3383 9.11487 11.5466 8.32324 10.5735 8.32324ZM10.5735 10.9703C10.0869 10.9703 9.69119 10.5746 9.69119 10.088C9.69119 9.60134 10.0869 9.2056 10.5735 9.2056C11.0602 9.2056 11.4559 9.60134 11.4559 10.088C11.4559 10.5746 11.0602 10.9703 10.5735 10.9703Z" fill="#56D11C"/>
<path d="M4.54401 8.32324C3.57093 8.32324 2.7793 9.11487 2.7793 10.088C2.7793 11.061 3.57093 11.8527 4.54401 11.8527C5.51709 11.8527 6.30872 11.061 6.30872 10.088C6.30872 9.11487 5.51709 8.32324 4.54401 8.32324ZM4.54401 10.9703C4.0574 10.9703 3.66165 10.5746 3.66165 10.088C3.66165 9.60134 4.0574 9.2056 4.54401 9.2056C5.03048 9.2056 5.42636 9.60134 5.42636 10.088C5.42636 10.5746 5.03062 10.9703 4.54401 10.9703Z" fill="#56D11C"/>
<path d="M11.762 3.27225C11.687 3.12328 11.5345 3.0293 11.3677 3.0293H9.04419V3.91165H11.0957L12.297 6.30106L13.0855 5.90458L11.762 3.27225Z" fill="#56D11C"/>
<path d="M9.2501 9.66211H5.91187V10.5445H9.2501V9.66211Z" fill="#56D11C"/>
<path d="M3.22055 9.66211H1.69116C1.44748 9.66211 1.25 9.85961 1.25 10.1033C1.25 10.347 1.4475 10.5444 1.69116 10.5444H3.22058C3.46427 10.5444 3.66175 10.3469 3.66175 10.1033C3.66175 9.85959 3.46424 9.66211 3.22055 9.66211Z" fill="#56D11C"/>
<path d="M13.9073 6.9651L13.0396 5.84745C12.9562 5.7398 12.8275 5.67686 12.6912 5.67686H9.48528V2.58862C9.48528 2.34494 9.28778 2.14746 9.04412 2.14746H1.69116C1.44748 2.14746 1.25 2.34496 1.25 2.58862C1.25 2.83229 1.4475 3.02979 1.69116 3.02979H8.60293V6.11802C8.60293 6.36171 8.80043 6.55918 9.04409 6.55918H12.4751L13.1176 7.38682V9.66213H11.897C11.6533 9.66213 11.4559 9.85963 11.4559 10.1033C11.4559 10.347 11.6534 10.5445 11.897 10.5445H13.5588C13.8025 10.5445 14 10.3469 14 10.1033V7.2357C14 7.13775 13.9673 7.04246 13.9073 6.9651Z" fill="#56D11C"/>
<path d="M3.19105 7.42676H1.16162C0.917935 7.42676 0.720459 7.62426 0.720459 7.86792C0.720459 8.11161 0.917963 8.30909 1.16162 8.30909H3.19102C3.43471 8.30909 3.63218 8.11158 3.63218 7.86792C3.63221 7.62426 3.43471 7.42676 3.19105 7.42676Z" fill="#56D11C"/>
<path d="M4.20588 5.69141H0.441164C0.197504 5.69141 0 5.88891 0 6.1326C0 6.37628 0.197504 6.57376 0.441164 6.57376H4.20588C4.44957 6.57376 4.64704 6.37626 4.64704 6.1326C4.64704 5.88894 4.44957 5.69141 4.20588 5.69141Z" fill="#56D11C"/>
<path d="M4.92634 3.95605H1.16162C0.917936 3.95605 0.720459 4.15356 0.720459 4.39722C0.720459 4.64091 0.917963 4.83838 1.16162 4.83838H4.92634C5.17003 4.83838 5.3675 4.64088 5.3675 4.39722C5.36753 4.15356 5.17003 3.95605 4.92634 3.95605Z" fill="#56D11C"/>
</g>
<defs>
<clipPath id="clip0">
<rect width="14" height="14" fill="white"/>
</clipPath>
</defs>
</svg>
