<svg width="450" height="140" viewBox="0 0 450 140" fill="none" xmlns="http://www.w3.org/2000/svg">
<path d="M41.5 69.4006C-5.3 69.4006 -37.3 39.7006 -82.5 36.3006C-127.7 32.9006 -196.8 85.4006 -258.5 93.4006C-320.2 101.401 -407 40.8006 -467 40.8006" stroke="#2065BF" stroke-width="13.6769" stroke-miterlimit="10"/>
<path d="M135.3 71.1992L138.5 11.6992C138.5 11.6992 121.6 11.6992 111.3 11.6992C95 11.6992 87.7 41.2992 71.5 49.8992C58 57.0992 46.2 57.1992 39.4 57.1992C32.5 57.1992 32 69.7992 32 69.7992C32 69.7992 32.5 82.3992 39.4 82.3992C46.3 82.3992 58.1 82.5992 71.5 89.6992C87.7 98.2992 95.1 127.899 111.3 127.899C121.6 127.899 138.5 127.899 138.5 127.899L135 71.0992L135.3 71.1992Z" fill="#3099F2"/>
<path d="M170.3 69.8C170.3 49.4 167.4 31.1 162.8 18.3V0H147.2C134.4 0 124 31.3 124 69.8C124 108.4 134.4 139.6 147.1 139.6H162.7V121.2C167.4 108.5 170.3 90.2 170.3 69.8Z" fill="#3A7FD8"/>
<path d="M161.7 139.6C174.458 139.6 184.8 108.349 184.8 69.8C184.8 31.2505 174.458 0 161.7 0C148.942 0 138.6 31.2505 138.6 69.8C138.6 108.349 148.942 139.6 161.7 139.6Z" fill="#BADCF2"/>
<path d="M164.7 43.9008C164.7 48.9008 163.4 53.0008 161.7 53.0008C160 53.0008 158.7 48.9008 158.7 43.9008C158.7 38.9008 160 34.8008 161.7 34.8008C163.4 34.9008 164.7 38.9008 164.7 43.9008Z" fill="#2065BF"/>
<path d="M211.2 34.9004H161.7V53.0004H211.2V34.9004Z" fill="#2065BF"/>
<path d="M212.7 53.0008C217.726 53.0008 221.8 48.9266 221.8 43.9008C221.8 38.875 217.726 34.8008 212.7 34.8008C207.674 34.8008 203.6 38.875 203.6 43.9008C203.6 48.9266 207.674 53.0008 212.7 53.0008Z" fill="#2065BF"/>
<path d="M164.7 95.7992C164.7 100.799 163.4 104.899 161.7 104.899C160 104.899 158.7 100.799 158.7 95.7992C158.7 90.7992 160 86.6992 161.7 86.6992C163.4 86.6992 164.7 90.7992 164.7 95.7992Z" fill="#2065BF"/>
<path d="M211.2 86.6992H161.7V104.799H211.2V86.6992Z" fill="#2065BF"/>
<path d="M212.7 104.899C217.726 104.899 221.8 100.825 221.8 95.7992C221.8 90.7734 217.726 86.6992 212.7 86.6992C207.674 86.6992 203.6 90.7734 203.6 95.7992C203.6 100.825 207.674 104.899 212.7 104.899Z" fill="#2065BF"/>
<path d="M403.7 69.4008C450.5 69.4008 495.5 99.2008 540.6 95.8008C585.7 92.4008 665.7 52.0008 727.4 60.0008C789.1 68.0008 843.1 94.1008 912.1 40.8008" stroke="#2065BF" stroke-width="13.6769" stroke-miterlimit="10"/>
<path d="M405.8 57.3008C398.9 57.3008 387.1 57.1008 373.7 50.0008C357.5 41.4008 350.1 11.8008 333.9 11.8008C323.6 11.8008 306.7 11.8008 306.7 11.8008L310.4 68.4008H310L306.8 128.001C306.8 128.001 323.7 128.001 334 128.001C350.3 128.001 357.6 98.4008 373.8 89.8008C387.3 82.6008 399.1 82.5008 405.9 82.5008C412.8 82.5008 413.3 69.9008 413.3 69.9008C413.3 69.9008 412.7 57.3008 405.8 57.3008Z" fill="#3099F2"/>
<path d="M274.9 69.8C274.9 49.4 277.8 31.1 282.4 18.3V0H298C310.8 0 321.1 31.3 321.1 69.8C321.1 108.4 310.7 139.6 298 139.6H282.4V121.2C277.8 108.5 274.9 90.2 274.9 69.8Z" fill="#3A7FD8"/>
<path d="M283.5 139.6C296.258 139.6 306.6 108.349 306.6 69.8C306.6 31.2505 296.258 0 283.5 0C270.742 0 260.4 31.2505 260.4 69.8C260.4 108.349 270.742 139.6 283.5 139.6Z" fill="#57A9F2"/>
<path d="M280.5 43.9008C280.5 48.9008 281.8 53.0008 283.5 53.0008C285.2 53.0008 286.5 48.9008 286.5 43.9008C286.5 38.9008 285.2 34.8008 283.5 34.8008C281.8 34.9008 280.5 38.9008 280.5 43.9008Z" fill="#2065BF"/>
<path d="M280.5 95.7992C280.5 100.799 281.8 104.899 283.5 104.899C285.2 104.899 286.5 100.799 286.5 95.7992C286.5 90.7992 285.2 86.6992 283.5 86.6992C281.8 86.6992 280.5 90.7992 280.5 95.7992Z" fill="#2065BF"/>
</svg>
