<svg id="Layer_1" data-name="Layer 1" xmlns="http://www.w3.org/2000/svg" viewBox="0 0 216.62 139.6"><defs><style>.cls-1{fill:none;stroke:#2065bf;stroke-miterlimit:10;stroke-width:13.68px;}.cls-2{fill:#3099f2;}.cls-3{fill:#3a7fd8;}.cls-4{fill:#57a9f2;}.cls-5{fill:#2065bf;}</style></defs><path class="cls-1" d="M143.3,69.4c24.47.56,48.1,7.59,71.22,15.07"/><path class="cls-2" d="M145.4,57.3c-6.9,0-18.7-.2-32.1-7.3C97.1,41.4,89.7,11.8,73.5,11.8H46.3L50,68.4h-.4L46.4,128H73.6c16.3,0,23.6-29.6,39.8-38.2,13.5-7.2,25.3-7.3,32.1-7.3s7.4-12.6,7.4-12.6S152.3,57.3,145.4,57.3Z"/><path class="cls-3" d="M14.5,69.8c0-20.4,2.9-38.7,7.5-51.5V0H37.6C50.4,0,60.7,31.3,60.7,69.8s-10.4,69.8-23.1,69.8H22V121.2C17.4,108.5,14.5,90.2,14.5,69.8Z"/><path class="cls-4" d="M23.1,139.6c12.76,0,23.1-31.25,23.1-69.8S35.86,0,23.1,0,0,31.25,0,69.8,10.34,139.6,23.1,139.6Z"/><path class="cls-5" d="M20.1,43.9c0,5,1.3,9.1,3,9.1s3-4.1,3-9.1-1.3-9.1-3-9.1S20.1,38.9,20.1,43.9Z"/><path class="cls-5" d="M20.1,95.8c0,5,1.3,9.1,3,9.1s3-4.1,3-9.1-1.3-9.1-3-9.1S20.1,90.8,20.1,95.8Z"/></svg>