<svg id="Layer_1" data-name="Layer 1" xmlns="http://www.w3.org/2000/svg" viewBox="0 0 248.42 139.6"><defs><style>.cls-1{fill:none;stroke:#2065bf;stroke-miterlimit:10;stroke-width:13.68px;}.cls-2{fill:#3099f2;}.cls-3{fill:#3a7fd8;}.cls-4{fill:#badcf2;}.cls-5{fill:#2065bf;}</style></defs><path class="cls-1" d="M68.12,69.4c-22.91.46-44.68-8-65.5-16.63"/><path class="cls-2" d="M161.92,71.2l3.2-59.5h-27.2c-16.3,0-23.6,29.6-39.8,38.2-13.5,7.2-25.3,7.3-32.1,7.3s-7.4,12.6-7.4,12.6.5,12.6,7.4,12.6,18.7.2,32.1,7.3c16.2,8.6,23.6,38.2,39.8,38.2h27.2l-3.5-56.8Z"/><path class="cls-3" d="M196.92,69.8c0-20.4-2.9-38.7-7.5-51.5V0h-15.6c-12.8,0-23.2,31.3-23.2,69.8s10.4,69.8,23.1,69.8h15.6V121.2C194,108.5,196.92,90.2,196.92,69.8Z"/><path class="cls-4" d="M188.32,139.6c12.76,0,23.1-31.25,23.1-69.8S201.08,0,188.32,0s-23.1,31.25-23.1,69.8S175.57,139.6,188.32,139.6Z"/><path class="cls-5" d="M191.32,43.9c0,5-1.3,9.1-3,9.1s-3-4.1-3-9.1,1.3-9.1,3-9.1S191.32,38.9,191.32,43.9Z"/><path class="cls-5" d="M237.82,34.9h-49.5V53h49.5Z"/><path class="cls-5" d="M239.32,53a9.1,9.1,0,1,0-9.1-9.1A9.09,9.09,0,0,0,239.32,53Z"/><path class="cls-5" d="M191.32,95.8c0,5-1.3,9.1-3,9.1s-3-4.1-3-9.1,1.3-9.1,3-9.1S191.32,90.8,191.32,95.8Z"/><path class="cls-5" d="M237.82,86.7h-49.5v18.1h49.5Z"/><path class="cls-5" d="M239.32,104.9a9.1,9.1,0,1,0-9.1-9.1A9.1,9.1,0,0,0,239.32,104.9Z"/></svg>