<svg width="25" height="26" viewBox="0 0 25 26" fill="none" xmlns="http://www.w3.org/2000/svg">
<path d="M24.9979 13.4688C24.9979 20.3649 19.402 25.9553 12.499 25.9553C5.59599 25.9553 0 20.3649 0 13.4688C0 6.57265 5.59599 0.982239 12.499 0.982239C19.402 0.982239 24.9979 6.57265 24.9979 13.4688Z" fill="white"/>
<path d="M12.4999 1.00725C5.59638 1.00725 0 6.5982 0 13.4947C0 18.7851 3.29467 23.3077 7.94466 25.1272C7.83529 24.1391 7.73661 22.6196 7.98807 21.541C8.21512 20.5665 9.45379 15.3339 9.45379 15.3339C9.45379 15.3339 9.07982 14.5859 9.07982 13.4799C9.07982 11.7435 10.0872 10.4472 11.3417 10.4472C12.408 10.4472 12.9233 11.2472 12.9233 12.2063C12.9233 13.2778 12.2405 14.8795 11.888 16.364C11.5935 17.607 12.5119 18.6206 13.739 18.6206C15.9608 18.6206 17.6685 16.2803 17.6685 12.9022C17.6685 9.91237 15.5179 7.82188 12.4472 7.82188C8.89056 7.82188 6.80287 10.4869 6.80287 13.241C6.80287 14.3144 7.21669 15.4652 7.73314 16.0908C7.83519 16.2144 7.85023 16.3229 7.81986 16.449C7.72489 16.8434 7.5141 17.6916 7.47264 17.8651C7.4181 18.0937 7.29144 18.1422 7.05463 18.0321C5.4934 17.3061 4.51737 15.026 4.51737 13.1945C4.51737 9.25531 7.38221 5.63783 12.7765 5.63783C17.1128 5.63783 20.4826 8.72454 20.4826 12.8499C20.4826 17.1536 17.7664 20.6171 13.9962 20.6171C12.7296 20.6171 11.5388 19.9598 11.1313 19.1833C11.1313 19.1833 10.5044 21.5675 10.3525 22.1518C10.0701 23.2365 9.30843 24.5961 8.79886 25.4254C9.96854 25.7872 11.2114 25.9823 12.4999 25.9823C19.4036 25.9823 25 20.3916 25 13.4947C25 6.5982 19.4036 1.00725 12.4999 1.00725Z" fill="#E71D27"/>
</svg>
