<svg width="25" height="25" viewBox="0 0 25 25" fill="none" xmlns="http://www.w3.org/2000/svg">
<path d="M21.875 25H3.125C1.4 25 0 23.6 0 21.875V3.125C0 1.4 1.4 0 3.125 0H21.875C23.6 0 25 1.4 25 3.125V21.875C25 23.6 23.6 25 21.875 25Z" fill="#1DA1F2"/>
<path d="M9.60022 18.8493C15.494 18.8493 18.719 13.9618 18.719 9.73054C18.719 9.59304 18.719 9.45554 18.7127 9.31804C19.3377 8.86804 19.8815 8.29929 20.3127 7.65554C19.7377 7.91179 19.119 8.08054 18.469 8.16179C19.1315 7.76804 19.6377 7.13679 19.8815 6.38679C19.2627 6.75554 18.5752 7.01804 17.844 7.16179C17.2565 6.53679 16.4252 6.14929 15.5065 6.14929C13.7377 6.14929 12.3002 7.58679 12.3002 9.35554C12.3002 9.60554 12.3315 9.84929 12.3815 10.0868C9.71897 9.95554 7.35647 8.67429 5.77522 6.73679C5.50022 7.21179 5.34397 7.76179 5.34397 8.34929C5.34397 9.46179 5.91272 10.443 6.76897 11.018C6.24397 10.9993 5.75022 10.8555 5.31897 10.618V10.6618C5.31897 12.2118 6.42522 13.5118 7.88772 13.8055C7.61897 13.8805 7.33772 13.918 7.04397 13.918C6.83772 13.918 6.63772 13.8993 6.44397 13.8618C6.85022 15.1368 8.03772 16.0618 9.43772 16.0868C8.33772 16.9493 6.95647 17.4618 5.45647 17.4618C5.20022 17.4618 4.94397 17.4493 4.69397 17.418C6.10647 18.318 7.79397 18.8493 9.60022 18.8493Z" fill="white"/>
</svg>
