<svg id="Layer_1" data-name="Layer 1" xmlns="http://www.w3.org/2000/svg" width="291.76" height="209.71" viewBox="0 0 291.76 209.71"><defs><style>.cls-1{fill:#26a6d1;}.cls-2{fill:#fff;}</style></defs><path class="cls-1" d="M18.24,0H273.53a18.24,18.24,0,0,1,18.23,18.24V191.48a18.24,18.24,0,0,1-18.23,18.23H18.24A18.22,18.22,0,0,1,0,191.51V18.24A18.24,18.24,0,0,1,18.24,0Z" transform="translate(0)"/><path class="cls-2" d="M47.05,72.94,18.24,136.7H52.73L57,126.53h9.78l4.27,10.17h38v-7.76l3.38,7.76H132l3.38-7.92v7.92h79l9.6-9.9,9,9.9,40.56.08L244.63,105l28.9-32.06H233.6l-9.34,9.72-8.71-9.72h-85.9L122.28,89.4l-7.55-16.46H80.31v7.5l-3.83-7.5Zm6.67,9H70.53l19.11,43.24V82h18.42l14.76,31,13.61-31h18.32v45.76H143.6l-.09-35.85-16.26,35.85h-10L100.93,91.9v35.85H78l-4.35-10.26H50.15l-4.34,10.25H33.52ZM165,82h45.3l13.87,15,14.31-15h13.87l-21.07,23,21.07,22.73h-14.5L224,112.57l-14.4,15.15H165ZM61.9,89.74,54.16,108H69.63Zm114.25,1.73v8.35h24.74v9.31H176.15v9.12H203.9l12.89-13.43L204.45,91.46h-28.3Z" transform="translate(0)"/></svg>