<svg width="63" height="38" viewBox="0 0 63 38" fill="none" xmlns="http://www.w3.org/2000/svg">
<g clip-path="url(#clip0)">
<path d="M63 18.9C63 29.3 54.5999 37.8 44.0999 37.8C33.6999 37.8 25.2 29.3 25.2 18.9C25.2 8.5 33.6 0 44 0C54.6 0 63 8.5 63 18.9Z" fill="#FFB600"/>
<path d="M44.0999 0C54.4999 0 63 8.5 63 18.9C63 29.3 54.5999 37.8 44.0999 37.8C33.6999 37.8 25.2 29.3 25.2 18.9" fill="#F7981D"/>
<path d="M44.1001 0C54.5001 0 63.0001 8.5 63.0001 18.9C63.0001 29.3 54.6001 37.8 44.1001 37.8" fill="#FF8500"/>
<path d="M18.7 0C8.4 0.1 0 8.5 0 18.9C0 29.3 8.4 37.8 18.9 37.8C23.8 37.8 28.2 35.9 31.6 32.9C32.3 32.3 32.9 31.6 33.5 30.9H29.6C29.1 30.3 28.6 29.6 28.2 29H34.9C35.3 28.4 35.7 27.7 36 27H27.1C26.8 26.4 26.5 25.7 26.3 25H36.7C37.3 23.1 37.7 21.1 37.7 19C37.7 17.6 37.5 16.3 37.3 15H25.7C25.8 14.3 26 13.7 26.2 13H36.6C36.4 12.3 36.1 11.6 35.8 11H27C27.3 10.3 27.7 9.7 28.1 9H34.8C34.4 8.3 33.9 7.6 33.3 7H29.6C30.2 6.3 30.8 5.7 31.5 5.1C28.2 2 23.7 0.2 18.8 0.2C18.8 -1.93715e-07 18.8 0 18.7 0Z" fill="#FF5050"/>
<path d="M0 18.9002C0 29.3002 8.4 37.8002 18.9 37.8002C23.8 37.8002 28.2 35.9002 31.6 32.9002C32.3 32.3002 32.9 31.6002 33.5 30.9002H29.6C29.1 30.3002 28.6 29.6002 28.2 29.0002H34.9C35.3 28.4002 35.7 27.7002 36 27.0002H27.1C26.8 26.4002 26.5 25.7002 26.3 25.0002H36.7C37.3 23.1002 37.7 21.1002 37.7 19.0002C37.7 17.6002 37.5 16.3002 37.3 15.0002H25.7C25.8 14.3002 26 13.7002 26.2 13.0002H36.6C36.4 12.3002 36.1 11.6002 35.8 11.0002H27C27.3 10.3002 27.7 9.7002 28.1 9.0002H34.8C34.4 8.3002 33.9 7.6002 33.3 7.0002H29.6C30.2 6.3002 30.8 5.7002 31.5 5.1002C28.2 2.0002 23.7 0.200195 18.8 0.200195H18.7" fill="#E52836"/>
<path d="M18.9 37.8002C23.8 37.8002 28.1999 35.9002 31.5999 32.9002C32.2999 32.3002 32.9 31.6002 33.5 30.9002H29.6C29.1 30.3002 28.6 29.6002 28.2 29.0002H34.9C35.3 28.4002 35.7 27.7002 36 27.0002H27.1C26.8 26.4002 26.4999 25.7002 26.2999 25.0002H36.7C37.3 23.1002 37.7 21.1002 37.7 19.0002C37.7 17.6002 37.5 16.3002 37.2999 15.0002H25.7C25.8 14.3002 26 13.7002 26.2 13.0002H36.5999C36.3999 12.3002 36.0999 11.6002 35.7999 11.0002H27C27.3 10.3002 27.7 9.7002 28.1 9.0002H34.7999C34.4 8.3002 33.9 7.6002 33.2999 7.0002H29.6C30.2 6.3002 30.8 5.7002 31.5 5.1002C28.2 2.0002 23.6999 0.200195 18.7999 0.200195H18.7" fill="#CB2026"/>
<path d="M25.6 23.7004L25.9 22.0004C25.8 22.0004 25.6 22.1004 25.4 22.1004C24.6999 22.1004 24.6 21.7004 24.7 21.5004L25.2999 18.0004H26.4L26.7 16.1004H25.7L25.9 14.9004H23.9C23.9 14.9004 22.7 21.5004 22.7 22.3004C22.7 23.5004 23.3999 24.0004 24.2999 24.0004C24.8999 24.0004 25.4 23.8004 25.6 23.7004Z" fill="white"/>
<path d="M26.3 20.5C26.3 23.3 28.2 24 29.8 24C31.3 24 31.9001 23.7 31.9001 23.7L32.3 21.8C32.3 21.8 31.2001 22.3 30.2001 22.3C28.0001 22.3 28.4 20.7 28.4 20.7H32.5C32.5 20.7 32.8 19.4 32.8 18.9C32.8 17.6 32.1 16 29.9 16C27.8 15.8 26.3 18 26.3 20.5ZM29.8 17.6C30.9 17.6 30.7001 18.9 30.7001 19H28.5C28.5 18.9 28.7 17.6 29.8 17.6Z" fill="white"/>
<path d="M42.5 23.7L42.9 21.5C42.9 21.5 41.9 22 41.2 22C39.8 22 39.2 20.9 39.2 19.7C39.2 17.3 40.4 16 41.8 16C42.8 16 43.6 16.6 43.6 16.6L43.9 14.5C43.9 14.5 42.7 14 41.6 14C39.3 14 37 16 37 19.8C37 22.3 38.2 24 40.6 24C41.4 24 42.5 23.7 42.5 23.7Z" fill="white"/>
<path d="M14.6 15.7998C13.2 15.7998 12.2 16.1998 12.2 16.1998L11.9 17.8998C11.9 17.8998 12.8 17.4998 14.1 17.4998C14.8 17.4998 15.4 17.5998 15.4 18.1998C15.4 18.5998 15.3 18.6998 15.3 18.6998C15.3 18.6998 14.7 18.6998 14.4 18.6998C12.7 18.6998 10.8 19.3998 10.8 21.6998C10.8 23.4998 12 23.8998 12.7 23.8998C14.1 23.8998 14.7 22.9998 14.8 22.9998L14.7 23.7998H16.5L17.3 18.2998C17.3 15.8998 15.3 15.7998 14.6 15.7998ZM15 20.2998C15 20.5998 14.8 22.1998 13.6 22.1998C13 22.1998 12.8 21.6998 12.8 21.3998C12.8 20.8998 13.1 20.1998 14.6 20.1998C14.9 20.2998 15 20.2998 15 20.2998Z" fill="white"/>
<path d="M19.2001 23.9002C19.7001 23.9002 22.2001 24.0002 22.2001 21.3002C22.2001 18.8002 19.8001 19.3002 19.8001 18.3002C19.8001 17.8002 20.2001 17.6002 20.9001 17.6002C21.2001 17.6002 22.3001 17.7002 22.3001 17.7002L22.6001 15.9002C22.6001 15.9002 21.9001 15.7002 20.7001 15.7002C19.2001 15.7002 17.7001 16.3002 17.7001 18.3002C17.7001 20.6002 20.2001 20.4002 20.2001 21.3002C20.2001 21.9002 19.5001 22.0002 19.0001 22.0002C18.1001 22.0002 17.2001 21.7002 17.2001 21.7002L16.9001 23.5002C17.0001 23.7002 17.5001 23.9002 19.2001 23.9002Z" fill="white"/>
<path d="M59.1001 14.2002L58.7001 16.9002C58.7001 16.9002 57.9001 15.9002 56.8001 15.9002C55.0001 15.9002 53.4001 18.1002 53.4001 20.7002C53.4001 22.3002 54.2001 24.0002 55.9001 24.0002C57.1001 24.0002 57.8001 23.2002 57.8001 23.2002L57.7001 23.9002H59.7001L61.2001 14.3002L59.1001 14.2002ZM58.2001 19.5002C58.2001 20.6002 57.7001 22.0002 56.6001 22.0002C55.9001 22.0002 55.5001 21.4002 55.5001 20.4002C55.5001 18.8002 56.2001 17.8002 57.1001 17.8002C57.8001 17.8002 58.2001 18.3002 58.2001 19.5002Z" fill="white"/>
<path d="M3.70005 23.8002L4.90005 16.6002L5.10005 23.8002H6.50005L9.10005 16.6002L8.00005 23.8002H10.1L11.7 14.2002H8.40005L6.40005 20.1002L6.30005 14.2002H3.40005L1.80005 23.8002H3.70005Z" fill="white"/>
<path d="M34.7 23.8C35.3 20.5 35.4 17.8 36.8 18.3C37 17 37.3 16.5 37.5 16C37.5 16 37.4 16 37.1 16C36.2 16 35.5 17.2 35.5 17.2L35.7 16.1H33.8L32.5 23.9H34.7V23.8Z" fill="white"/>
<path d="M47.1 15.7998C45.7 15.7998 44.7001 16.1998 44.7001 16.1998L44.4001 17.8998C44.4001 17.8998 45.3 17.4998 46.6 17.4998C47.3 17.4998 47.9001 17.5998 47.9001 18.1998C47.9001 18.5998 47.8 18.6998 47.8 18.6998C47.8 18.6998 47.2001 18.6998 46.9001 18.6998C45.2001 18.6998 43.3 19.3998 43.3 21.6998C43.3 23.4998 44.5001 23.8998 45.2001 23.8998C46.6001 23.8998 47.2 22.9998 47.3 22.9998L47.2001 23.7998H49L49.8 18.2998C49.9 15.8998 47.8 15.7998 47.1 15.7998ZM47.6 20.2998C47.6 20.5998 47.4001 22.1998 46.2001 22.1998C45.6001 22.1998 45.4001 21.6998 45.4001 21.3998C45.4001 20.8998 45.7001 20.1998 47.2001 20.1998C47.5001 20.2998 47.5 20.2998 47.6 20.2998Z" fill="white"/>
<path d="M51.5 23.8C52.1 20.5 52.2 17.8 53.6 18.3C53.8 17 54.1 16.5 54.3 16C54.3 16 54.2001 16 53.9001 16C53.0001 16 52.3 17.2 52.3 17.2L52.5 16.1H50.6L49.3 23.9H51.5V23.8Z" fill="white"/>
<path d="M22.5 22.3004C22.5 23.5004 23.2 24.0004 24.1 24.0004C24.8 24.0004 25.4 23.8004 25.6 23.7004L25.9 22.0004C25.8 22.0004 25.6 22.1004 25.4 22.1004C24.7 22.1004 24.6 21.7004 24.7 21.5004L25.3 18.0004H26.4L26.7 16.1004H25.7L25.9 14.9004" fill="#DCE5E5"/>
<path d="M27.3 20.5C27.3 23.3 28.2 24 29.8 24C31.3 24 31.9001 23.7 31.9001 23.7L32.3 21.8C32.3 21.8 31.2001 22.3 30.2001 22.3C28.0001 22.3 28.4 20.7 28.4 20.7H32.5C32.5 20.7 32.8 19.4 32.8 18.9C32.8 17.6 32.1 16 29.9 16C27.8 15.8 27.3 18 27.3 20.5ZM29.8 17.6C30.9 17.6 31.1 18.9 31.1 19H28.5C28.5 18.9 28.7 17.6 29.8 17.6Z" fill="#DCE5E5"/>
<path d="M42.5 23.7L42.9 21.5C42.9 21.5 41.9 22 41.2 22C39.8 22 39.2 20.9 39.2 19.7C39.2 17.3 40.4 16 41.8 16C42.8 16 43.6 16.6 43.6 16.6L43.9 14.5C43.9 14.5 42.7 14 41.6 14C39.3 14 38 16 38 19.8C38 22.3 38.2 24 40.6 24C41.4 24 42.5 23.7 42.5 23.7Z" fill="#DCE5E5"/>
<path d="M11.9 18C11.9 18 12.8 17.6 14.1 17.6C14.8 17.6 15.4 17.7 15.4 18.3C15.4 18.7 15.3 18.8 15.3 18.8C15.3 18.8 14.7 18.8 14.4 18.8C12.7 18.8 10.8 19.5 10.8 21.8C10.8 23.6 12 24 12.7 24C14.1 24 14.7 23.1 14.8 23.1L14.7 23.9H16.5L17.3 18.4C17.3 16.1 15.3 16 14.5 16L11.9 18ZM16 20.3C16 20.6 14.8 22.2 13.6 22.2C13 22.2 12.8 21.7 12.8 21.4C12.8 20.9 13.1 20.2 14.6 20.2C14.9 20.3 16 20.3 16 20.3Z" fill="#DCE5E5"/>
<path d="M17 23.7002C17 23.7002 17.6 23.9002 19.3 23.9002C19.8 23.9002 22.3 24.0002 22.3 21.3002C22.3 18.8002 19.9 19.3002 19.9 18.3002C19.9 17.8002 20.3 17.6002 21 17.6002C21.3 17.6002 22.4 17.7002 22.4 17.7002L22.7 15.9002C22.7 15.9002 22 15.7002 20.8 15.7002C19.3 15.7002 18.8 16.3002 18.8 18.3002C18.8 20.6002 20.3 20.4002 20.3 21.3002C20.3 21.9002 19.6 22.0002 19.1 22.0002" fill="#DCE5E5"/>
<path d="M58.7001 16.8998C58.7001 16.8998 57.9001 15.8998 56.8001 15.8998C55.0001 15.8998 54.4001 18.0998 54.4001 20.6998C54.4001 22.2998 54.2001 23.9998 55.9001 23.9998C57.1001 23.9998 57.8001 23.1998 57.8001 23.1998L57.7001 23.8998H59.7001L61.2001 14.2998L58.7001 16.8998ZM58.6001 19.4998C58.6001 20.5998 57.7001 21.9998 56.6001 21.9998C55.9001 21.9998 55.5001 21.3998 55.5001 20.3998C55.5001 18.7998 56.2001 17.7998 57.1001 17.7998C57.8001 17.7998 58.6001 18.2998 58.6001 19.4998Z" fill="#DCE5E5"/>
<path d="M3.70005 23.8002L4.90005 16.6002L5.10005 23.8002H6.50005L9.10005 16.6002L8.00005 23.8002H10.1L11.7 14.2002H9.20005L6.40005 20.1002L6.30005 14.2002H5.20005L1.80005 23.8002H3.70005Z" fill="#DCE5E5"/>
<path d="M32.6001 23.8H34.7001C35.3001 20.5 35.4001 17.8 36.8001 18.3C37.0001 17 37.3001 16.5 37.5001 16C37.5001 16 37.4001 16 37.1001 16C36.2001 16 35.5001 17.2 35.5001 17.2L35.7001 16.1" fill="#DCE5E5"/>
<path d="M44.4001 18C44.4001 18 45.3 17.6 46.6 17.6C47.3 17.6 47.9001 17.7 47.9001 18.3C47.9001 18.7 47.8 18.8 47.8 18.8C47.8 18.8 47.2001 18.8 46.9001 18.8C45.2001 18.8 43.3 19.5 43.3 21.8C43.3 23.6 44.5001 24 45.2001 24C46.6001 24 47.2 23.1 47.3 23.1L47.2001 23.9H49L49.8 18.4C49.8 16.1 47.8 16 47 16L44.4001 18ZM48.5 20.3C48.5 20.6 47.3 22.2 46.1 22.2C45.5 22.2 45.3 21.7 45.3 21.4C45.3 20.9 45.6 20.2 47.1 20.2C47.5 20.3 48.5 20.3 48.5 20.3Z" fill="#DCE5E5"/>
<path d="M49.4001 23.8H51.5001C52.1001 20.5 52.2001 17.8 53.6001 18.3C53.8001 17 54.1001 16.5 54.3001 16C54.3001 16 54.2001 16 53.9001 16C53.0001 16 52.3001 17.2 52.3001 17.2L52.5001 16.1" fill="#DCE5E5"/>
</g>
<defs>
<clipPath id="clip0">
<rect width="63" height="37.8" fill="white"/>
</clipPath>
</defs>
</svg>
