<svg width="63" height="20" viewBox="0 0 63 20" fill="none" xmlns="http://www.w3.org/2000/svg">
<g clip-path="url(#clip0)">
<path d="M28.2001 18.5996H23.1001L26.3001 0.599609H31.3001L28.2001 18.5996Z" fill="#3C58BF"/>
<path d="M28.2001 18.5996H23.1001L27.2001 0.599609H31.3001L28.2001 18.5996Z" fill="#293688"/>
<path d="M46.3 0.800001C45.3 0.400001 43.7 0 41.7 0C36.7 0 33.1 2.5 33.1 6.1C33.1 8.8 35.6 10.2 37.6 11.1C39.6 12 40.2 12.6 40.2 13.4C40.2 14.6 38.6 15.2 37.2 15.2C35.2 15.2 34.1 14.9 32.4 14.2L31.7 13.9L31 18C32.2 18.5 34.4 19 36.7 19C42 19 45.5 16.5 45.5 12.7C45.5 10.6 44.2 9 41.2 7.7C39.4 6.8 38.3 6.3 38.3 5.4C38.3 4.6 39.2 3.8 41.2 3.8C42.9 3.8 44.1 4.1 45 4.5L45.5 4.7L46.3 0.800001Z" fill="#3C58BF"/>
<path d="M46.3 0.800001C45.3 0.400001 43.7 0 41.7 0C36.7 0 34 2.5 34 6.1C34 8.8 35.6 10.2 37.6 11.1C39.6 12 40.2 12.6 40.2 13.4C40.2 14.6 38.6 15.2 37.2 15.2C35.2 15.2 34.1 14.9 32.4 14.2L31.7 13.9L31 18C32.2 18.5 34.4 19 36.7 19C42 19 45.5 16.5 45.5 12.7C45.5 10.6 44.2 9 41.2 7.7C39.4 6.8 38.3 6.3 38.3 5.4C38.3 4.6 39.2 3.8 41.2 3.8C42.9 3.8 44.1 4.1 45 4.5L45.5 4.7L46.3 0.800001Z" fill="#293688"/>
<path d="M54.9001 0.599609C53.7001 0.599609 52.8 0.699609 52.3 1.89961L44.8 18.5996H50.2001L51.2001 15.5996H57.6L58.2001 18.5996H63L58.8 0.599609H54.9001ZM52.6 12.5996C52.9 11.6996 54.6 7.29961 54.6 7.29961C54.6 7.29961 55 6.19961 55.3 5.49961L55.6 7.19961C55.6 7.19961 56.6 11.6996 56.8 12.6996H52.6V12.5996Z" fill="#3C58BF"/>
<path d="M56.1 0.599609C54.9 0.599609 54 0.699609 53.5 1.89961L44.8 18.5996H50.2001L51.2001 15.5996H57.6L58.2001 18.5996H63L58.8 0.599609H56.1ZM52.6 12.5996C53 11.5996 54.6 7.29961 54.6 7.29961C54.6 7.29961 55 6.19961 55.3 5.49961L55.6 7.19961C55.6 7.19961 56.6 11.6996 56.8 12.6996H52.6V12.5996Z" fill="#293688"/>
<path d="M13.8999 13.2002L13.3999 10.6002C12.4999 7.60019 9.5999 4.3002 6.3999 2.7002L10.8999 18.7002H16.2999L24.3999 0.700195H18.9999L13.8999 13.2002Z" fill="#3C58BF"/>
<path d="M13.8999 13.2002L13.3999 10.6002C12.4999 7.60019 9.5999 4.3002 6.3999 2.7002L10.8999 18.7002H16.2999L24.3999 0.700195H19.9999L13.8999 13.2002Z" fill="#293688"/>
<path d="M0 0.599609L0.9 0.79961C7.3 2.29961 11.7 6.09961 13.4 10.5996L11.6 2.09961C11.3 0.899609 10.4 0.599609 9.3 0.599609H0Z" fill="#FFBC00"/>
<path d="M0 0.599609C6.4 2.09961 11.7 5.99961 13.4 10.4996L11.7 3.39961C11.4 2.19961 10.4 1.49961 9.3 1.49961L0 0.599609Z" fill="#F7981D"/>
<path d="M0 0.599609C6.4 2.09961 11.7 5.99961 13.4 10.4996L12.2 6.59961C11.9 5.39961 11.5 4.19961 10.1 3.69961L0 0.599609Z" fill="#ED7C00"/>
<path d="M18.9 12.5996L15.5 9.19961L13.9 12.9996L13.5 10.4996C12.6 7.49961 9.7 4.19961 6.5 2.59961L11 18.5996H16.4L18.9 12.5996Z" fill="#051244"/>
<path d="M28.2001 18.6002L23.9001 14.2002L23.1001 18.6002H28.2001Z" fill="#051244"/>
<path d="M39.7 12.4004C40.1 12.8004 40.3 13.1004 40.2 13.5004C40.2 14.7004 38.6 15.3004 37.2 15.3004C35.2 15.3004 34.1 15.0004 32.4 14.3004L31.7 14.0004L31 18.1004C32.2 18.6004 34.4 19.1004 36.7 19.1004C39.9 19.1004 42.5 18.2004 44 16.6004L39.7 12.4004Z" fill="#051244"/>
<path d="M45.5 18.6H50.2L51.2 15.6H57.6L58.2 18.6H63L61.3 11.3L55.3 5.5L55.6 7.1C55.6 7.1 56.6 11.6 56.8 12.6H52.6C53 11.6 54.6 7.3 54.6 7.3C54.6 7.3 55 6.2 55.3 5.5" fill="#051244"/>
</g>
<defs>
<clipPath id="clip0">
<rect width="63" height="19.1" fill="white"/>
</clipPath>
</defs>
</svg>
